<?xml version="1.0" standalone="no"?>
<!DOCTYPE svg PUBLIC "-//W3C//DTD SVG 20010904//EN"
 "http://www.w3.org/TR/2001/REC-SVG-20010904/DTD/svg10.dtd">
<svg version="1.0" xmlns="http://www.w3.org/2000/svg"
 width="700.000000pt" height="700.000000pt" viewBox="0 0 700.000000 700.000000"
 preserveAspectRatio="xMidYMid meet">
<metadata>
Created by potrace 1.11, written by Peter Selinger 2001-2013
</metadata>
<g transform="translate(0.000000,700.000000) scale(0.100000,-0.100000)"
fill="#000000" stroke="none">
<path d="M1175 6978 c-39 -31 -54 -74 -56 -164 -1 -52 -10 -105 -26 -154 -37
-117 -59 -226 -68 -347 -3 -37 -7 -88 -10 -113 -2 -25 -7 -79 -10 -120 -3 -41
-8 -91 -10 -110 -2 -19 -7 -59 -10 -89 -3 -29 -13 -78 -22 -110 -9 -32 -16
-102 -17 -165 -1 -84 -5 -111 -16 -117 -8 -4 -78 -33 -155 -64 -304 -122 -344
-153 -448 -346 -31 -59 -34 -69 -23 -90 30 -58 67 -108 115 -156 43 -42 73
-60 173 -102 132 -56 214 -80 277 -83 24 -1 42 -7 45 -15 7 -18 1 -247 -7
-259 -13 -22 -22 -162 -20 -324 0 -96 2 -242 2 -325 1 -82 -1 -168 -4 -189 -6
-39 -4 -41 92 -135 101 -99 107 -104 234 -208 171 -139 375 -260 452 -267 29
-3 45 2 65 19 26 22 27 27 27 122 0 91 -6 170 -23 318 -9 76 -8 278 3 515 12
280 6 448 -21 593 -11 59 -12 82 -4 92 15 18 77 38 214 70 60 14 118 31 130
37 31 17 161 35 185 26 13 -4 51 -1 91 7 38 8 82 17 97 20 16 3 42 7 58 10 63
12 113 28 190 61 44 20 103 45 130 57 28 12 100 47 161 78 75 37 129 58 165
63 30 3 69 8 87 11 17 3 44 7 60 9 15 2 55 15 88 29 125 53 244 89 342 102 20
3 62 14 92 25 63 22 169 44 176 37 3 -3 -92 -101 -212 -218 -375 -370 -648
-643 -673 -674 -13 -16 -68 -79 -121 -140 -182 -208 -429 -523 -613 -782 -118
-165 -364 -535 -331 -498 27 31 31 36 100 120 22 28 66 89 98 137 115 175 242
335 386 483 37 39 84 96 104 128 20 31 42 57 49 58 72 4 95 23 146 119 37 69
83 117 164 172 l62 42 -86 -104 c-47 -58 -109 -140 -137 -182 -37 -55 -64 -84
-91 -98 -34 -17 -54 -45 -143 -192 -72 -120 -111 -176 -132 -187 -47 -26 -72
-53 -91 -101 -77 -194 -74 -190 -178 -254 -48 -29 -83 -105 -42 -89 40 15 4
-70 -70 -162 -44 -56 -268 -401 -331 -510 -28 -49 -75 -128 -103 -175 -29 -47
-108 -197 -177 -333 -105 -210 -153 -300 -214 -397 -14 -21 -70 -147 -70 -155
0 -4 -7 -23 -16 -43 -70 -159 -84 -182 -139 -233 -31 -30 -62 -65 -67 -79 -6
-14 -12 -86 -13 -160 -2 -74 -4 -141 -4 -147 -2 -25 -20 -13 -44 27 -19 32
-26 38 -35 28 -6 -7 -40 -100 -76 -206 -37 -106 -80 -223 -96 -259 l-30 -67
45 -46 46 -47 222 220 c221 220 222 221 322 267 129 61 183 114 253 247 29 54
69 117 90 140 20 23 96 80 167 127 190 124 216 144 255 193 44 56 97 87 185
109 106 26 147 47 180 93 38 51 166 117 375 191 225 80 361 132 356 138 -3 2
-26 -3 -52 -12 -26 -9 -49 -14 -51 -12 -10 9 44 47 89 62 50 16 65 28 26 20
-52 -11 -75 -17 -191 -46 -152 -40 -157 -41 -157 -31 0 15 48 52 81 61 19 6
90 20 159 31 83 13 146 30 188 49 34 16 91 34 125 40 79 14 163 37 205 56 52
24 168 42 309 48 132 5 193 17 373 71 73 22 85 23 93 10 12 -22 92 -20 125 4
41 28 113 40 280 45 45 2 52 -1 52 -17 0 -16 7 -18 63 -16 34 1 128 19 208 40
81 21 160 41 175 45 41 9 842 11 927 2 133 -14 154 -25 95 -48 -18 -8 -41 -20
-50 -28 -9 -8 -22 -11 -28 -7 -9 6 -9 2 -1 -14 13 -23 17 -24 153 -24 100 0
146 15 154 49 8 31 0 40 -81 95 -36 24 -65 47 -65 51 0 3 11 5 25 3 28 -3 30
2 14 42 -6 15 -12 43 -14 61 -4 45 -21 62 -63 62 -28 0 -49 12 -104 57 -169
140 -190 153 -281 177 -107 28 -192 31 -812 29 -576 -1 -756 -5 -840 -18 -48
-7 -230 -14 -495 -20 -135 -3 -261 -7 -280 -9 -19 -2 -64 -7 -100 -11 -82 -8
-122 -13 -185 -25 -27 -5 -61 -11 -75 -14 -47 -8 -121 -29 -117 -33 14 -13
239 -19 321 -8 42 5 507 18 676 18 172 0 267 -7 442 -33 121 -18 129 -19 198
-20 l65 -2 -40 -12 c-26 -8 -35 -15 -25 -19 35 -13 78 -20 127 -21 49 -1 51
-2 36 -19 -9 -10 -37 -27 -62 -38 -47 -21 -248 -73 -324 -84 -23 -4 -64 -11
-92 -17 -27 -5 -63 -12 -80 -14 -16 -3 -73 -14 -125 -24 -52 -11 -111 -22
-130 -24 -19 -3 -56 -7 -81 -11 -25 -3 -68 -8 -95 -11 -27 -2 -103 -16 -169
-30 -66 -13 -131 -27 -145 -30 -14 -3 -41 -9 -60 -14 -19 -5 -46 -11 -60 -14
-14 -2 -63 -14 -110 -25 -47 -11 -96 -22 -110 -24 -14 -3 -43 -10 -65 -15 -22
-6 -51 -13 -65 -16 -14 -2 -63 -13 -110 -25 -47 -11 -134 -31 -195 -46 -60
-14 -147 -35 -193 -46 -125 -31 -133 -31 -168 -13 -30 17 -34 17 -81 -1 -56
-21 -179 -82 -240 -120 l-42 -25 5 27 c8 45 31 86 88 154 65 78 89 140 112
286 10 61 21 82 102 176 42 51 79 94 82 97 3 3 39 46 80 95 41 50 78 92 81 95
14 12 125 178 182 272 137 225 321 482 504 705 53 65 102 123 107 129 6 6 40
44 76 85 113 129 250 275 406 433 194 197 514 488 860 783 27 23 66 58 88 77
40 37 197 144 276 188 25 14 92 54 150 89 l105 64 123 2 c68 0 140 4 160 8 46
8 195 71 242 101 21 14 84 34 155 49 203 43 246 78 220 174 -24 89 -58 145
-132 216 -40 39 -73 78 -73 87 0 23 -93 103 -153 132 -140 65 -173 80 -187 81
-53 3 -325 -75 -536 -155 -118 -45 -207 -73 -271 -86 -12 -2 -34 -9 -48 -14
-14 -5 -25 -8 -25 -5 0 2 -15 -1 -33 -6 -17 -5 -45 -12 -62 -15 -16 -2 -64
-11 -105 -19 -41 -8 -93 -16 -115 -19 -22 -3 -69 -18 -105 -34 -36 -16 -105
-42 -155 -56 -49 -15 -101 -31 -115 -35 -14 -5 -59 -19 -100 -31 -41 -13 -102
-35 -135 -50 -33 -16 -94 -34 -135 -40 -41 -7 -82 -14 -91 -15 -9 -2 -59 -24
-110 -49 -53 -25 -176 -69 -284 -101 -104 -31 -232 -72 -283 -91 -51 -19 -110
-37 -130 -40 -66 -10 -104 -22 -257 -79 -320 -121 -368 -137 -457 -151 -71
-11 -114 -25 -183 -60 -84 -41 -224 -84 -322 -97 -22 -4 -52 -8 -65 -11 -57
-13 -149 -14 -153 -3 -2 7 -6 64 -9 127 -6 139 -17 193 -67 327 -62 167 -92
304 -85 381 4 35 8 68 11 71 2 4 7 39 10 77 7 68 6 73 -30 142 l-37 71 20 68
c27 88 19 169 -39 398 -12 44 -22 87 -24 95 -3 16 -45 123 -49 128 -2 1 -15
-8 -31 -20z m-234 -1689 c3 -5 3 -29 -1 -53 -3 -24 -6 -93 -6 -155 l1 -112
-62 -19 c-68 -21 -107 -23 -233 -14 -52 4 -91 12 -102 21 -15 13 -12 21 38 91
64 89 127 150 200 192 29 17 57 36 63 44 13 16 93 20 102 5z m2560 -672 c-20
-20 -22 -21 -15 -2 8 21 25 37 33 29 3 -2 -5 -15 -18 -27z m299 -206 c-8 -5
-26 -12 -40 -16 -21 -7 -23 -6 -13 6 6 8 24 15 40 17 20 1 24 -1 13 -7z m-98
-192 l18 -30 -63 -28 c-61 -28 -127 -84 -114 -98 4 -3 19 0 35 7 15 8 32 16
37 18 19 8 -49 -48 -107 -87 -31 -21 -54 -41 -51 -45 12 -11 -26 -52 -83 -91
-82 -55 -125 -105 -89 -105 27 0 16 -47 -22 -97 -20 -26 -72 -84 -115 -127
-74 -76 -89 -96 -69 -96 5 0 11 -7 15 -15 4 -11 -2 -15 -20 -15 -20 0 -24 4
-19 19 3 11 1 22 -4 25 -14 9 -6 27 67 146 96 158 157 232 305 372 98 94 142
143 166 187 17 32 31 66 31 75 0 11 9 16 33 16 25 0 36 -6 49 -31z m-902 -823
c0 -1 -24 -18 -52 -36 -45 -27 -50 -29 -30 -8 12 13 22 30 22 36 0 7 14 12 30
12 17 0 30 -2 30 -4z m11 -291 c-17 -20 -31 -42 -31 -49 0 -13 -90 -50 -99
-41 -9 9 122 125 141 125 18 0 17 -4 -11 -35z m-395 -224 c-15 -16 -39 -31
-52 -34 -29 -5 -29 -3 -3 34 15 21 29 29 52 29 l31 0 -28 -29z m192 -131 c-59
-57 -61 -61 -42 -74 24 -19 9 -37 -36 -42 -44 -5 -70 -22 -64 -39 4 -10 0 -15
-14 -15 -29 0 -40 -19 -43 -75 -4 -69 -15 -83 -86 -116 -68 -30 -72 -38 -49
-93 16 -37 7 -56 -27 -56 -26 0 -57 -18 -57 -34 0 -15 -58 -28 -66 -14 -3 4 3
17 13 27 10 11 27 44 37 73 42 118 59 141 181 238 114 91 180 167 188 217 2
12 6 26 10 29 6 6 89 31 109 33 4 1 -20 -26 -54 -59z m-315 -50 c-5 -19 -23
-29 -23 -12 0 7 20 32 26 32 1 0 0 -9 -3 -20z m-144 -574 c-23 -20 -51 -26
-71 -15 -21 11 -21 12 12 29 29 15 36 16 48 3 8 -8 13 -15 11 -17z m-112 -72
c-3 -4 0 -19 8 -33 12 -24 12 -27 -5 -27 -10 0 -24 14 -33 33 -14 33 -14 33
11 33 14 0 23 -3 19 -6z"/>
<path d="M2726 3759 c-18 -31 -18 -31 3 -20 27 15 47 51 29 51 -8 0 -22 -14
-32 -31z"/>
<path d="M1911 2747 c-13 -21 -12 -21 5 -5 10 10 16 20 13 22 -3 3 -11 -5 -18
-17z"/>
<path d="M1705 2409 c-4 -6 -5 -12 -2 -15 2 -3 7 2 10 11 7 17 1 20 -8 4z"/>
<path d="M1659 2328 c-7 -13 -19 -34 -27 -48 -14 -24 -13 -24 3 -5 20 24 48
75 41 75 -3 0 -11 -10 -17 -22z"/>
<path d="M1606 2233 c-6 -14 -5 -15 5 -6 7 7 10 15 7 18 -3 3 -9 -2 -12 -12z"/>
<path d="M1567 2168 c-151 -263 -303 -524 -387 -663 -138 -229 -291 -489 -336
-572 -33 -60 -74 -116 -203 -276 -18 -23 -43 -62 -56 -87 -21 -44 -40 -110
-30 -110 3 0 23 11 44 24 49 31 73 65 99 141 30 89 41 110 104 213 32 51 58
95 58 98 0 3 16 30 35 60 19 30 35 57 35 60 0 3 8 18 19 32 10 15 55 88 98
162 44 74 126 211 182 303 56 92 137 232 180 310 43 78 87 158 98 177 49 86
92 170 88 170 -2 0 -15 -19 -28 -42z"/>
<path d="M6004 2105 c-33 -6 -72 -20 -85 -29 -20 -15 -21 -17 -4 -12 11 3 50
10 86 15 61 8 109 24 109 36 0 7 -39 4 -106 -10z"/>
<path d="M4593 2063 c9 -2 23 -2 30 0 6 3 -1 5 -18 5 -16 0 -22 -2 -12 -5z"/>
<path d="M4990 1972 c-38 -4 -63 -19 -54 -33 6 -10 154 -12 178 -3 19 7 21 34
4 35 -46 3 -98 4 -128 1z"/>
<path d="M3935 1842 c-61 -12 -74 -18 -55 -22 24 -6 108 12 140 31 20 11 10
10 -85 -9z"/>
<path d="M3385 1774 l-70 -25 53 6 c64 7 79 12 86 31 3 8 4 14 3 13 -1 -1 -33
-12 -72 -25z"/>
</g>
</svg>
