<?xml version="1.0" encoding="utf-8"?>
<!-- Generator: Adobe Illustrator 19.2.1, SVG Export Plug-In . SVG Version: 6.00 Build 0)  -->
<svg version="1.1" id="Layer_1" xmlns="http://www.w3.org/2000/svg" xmlns:xlink="http://www.w3.org/1999/xlink" x="0px" y="0px"
	 viewBox="0 0 180 66" style="enable-background:new 0 0 180 66;" xml:space="preserve">
<style type="text/css">
	.st0{fill:#68AD45;}
	.st1{fill:#323232;}
</style>
<path class="st0" d="M8.2-0.1c0.8,1,1.3,4,1.4,4.9C9.5,5.2,9.4,5.5,9.4,5.9c0.1,0.5,0.5,0.9,0.6,1.4C10,8.1,9.6,8.8,9.8,9.7
	c0.2,1.4,0.6,2.4,1.2,3.9c0.4,1.1,0.2,2.3,0.4,3.3c1.6-0.2,4-0.9,5.4-1.6l1.7-0.4c1.3-0.7,3.4-1.1,4.7-1.7l1.4-0.3
	c1.8-1,4.7-1.3,6.6-2.3l1.7-0.4c1.5-0.8,4.1-1.1,5.7-1.9c0.8-0.2,5-1,6.1-1.6c1.3-0.7,3.2-1.1,5.1-1.5c1.6,0.9,1.4,0.2,2.9,1.9
	c0.1,0.5,1.1,1.2,1.4,1.8c1.3,2.4,0.2,2.4-2.8,3c-0.2,0.3-2.2,1.2-2.9,1.2c-0.4,0-1.5-0.2-2,0.1c-1.9,1.1-3.8,2.1-5.3,3.4
	c-7.6,6.4-14.2,13-18.6,20.6c-1,1.8-2.5,3.1-3.8,4.8c-0.4,0.5-0.2,1.6-0.5,2.2c-0.4,0.8-1.6,1.5-1.4,2.5l0.1,0
	c0.2-0.3,2.3-1.6,3-1.5c0.2,0,0.5,0.2,0.7,0.1c3.5-0.9,7.7-1.8,11.5-2.6c1.1-0.2,3.1-0.4,3.8-0.7c1.2-0.5,6.2-0.9,6.4-1.7
	c-0.6,0-1.3,0.1-1.9-0.2c0.4-0.1,0.8-0.2,0.9-0.3c-1.2,0.2-2.9-0.2-4.2-0.3c-2.5-0.2-4.8,0-7.1-0.1c-1.5-0.1-2.9,0.5-4.4,0
	c3.1-0.7,6.6-1,9.6-0.8c1.2-0.1,2.4-0.2,3.7-0.3c1.7,0,3.7,0,5.4,0.1c2.3,0.1,5.6-0.4,7.7,0.3c1,0.4,1.9,1.1,2.9,2.1l0.5-0.1
	c0.1,0.1,0.1,0.2,0.2,0.3c-0.1,0.3,0,0.7,0.3,1.3l-0.5,0.1c0.5,0.5,1.4,0.9,1.4,1c-0.1,0.8-1.7,0.7-2.7,0.7
	c-0.1-0.1-0.2-0.2-0.3-0.4l0.3-0.1c0.1-0.2,0.7-0.3,0.8-0.5c-2.5-0.6-5.8-0.2-8.3-0.2c-2.1,0-3.7,1.3-5.7,0.8
	c0.3-0.1,0.3-0.1,0.4-0.2c-0.8,0.1-2.9,0-3.2,0.5c0.5-0.1,0.5-0.2,1,0.1l-0.5,0.1c-0.3-0.1-0.9,0.1-1.2,0c0.2-0.1,0.1-0.1,0.1-0.2
	c-1.2,0.3-2.7,0.9-3.6,0.9c-1.5,0-2.8,0.1-3.8,0.7c-0.5,0.3-1.7,0.2-2.2,0.5c-1.3,0.8-3.7,0.4-4,1.5l3.5-0.7l0.1,0.1l0,0.2
	c-0.3,0.2-1.2,0.4-1.3,0.7c1-0.3,2.1-0.5,3.1-0.8l0.1,0.1l-0.1,0c-0.2,0.6-1.1,0.2-1.7,0.5c-1.8,0.9-4.7,1.5-6.5,2.6
	c-0.4,0.2-0.7,0.7-1,1c-0.6,0.5-1.7,0.3-2.2,0.8c-0.4,0.3-0.7,0.8-1.1,1.1c-1.1,0.5-2.2,1-3.3,1.4c-1.5,1.3-0.8,2-2.5,3.3
	c-0.5,0.4-1.7,0.6-2.3,1.3c0.2-0.2-4.8,4.5-5.8,6.4c-0.8,1.5-0.9-0.2,0.4-1.9c1.7-2.1,2.6-7.5,3.1-6.6c1,1.8,0.2-1,0.5-2.2
	c0.1-0.6,0.5-0.9,0.9-1.3c0.9-0.9,1.3-3,2-4.2c1.3-2.3,2.5-4.9,3.8-7.2c0.9-1.7,2.1-3.2,3-4.8c0.4-0.7,1.2-1.2,1.1-2
	c-0.2,0.1-0.1,0.2-0.5,0.1l0.3-0.1c0-0.3,0.2-0.6,0.5-0.8l0.1,0.1c-0.1,0.2-0.2,0.4-0.2,0.6l0.1,0c0.1-0.6,0.9-0.8,1.3-1.3
	c0.4-0.5,0.7-1.4,1-2c0.3-0.2,0.6-0.4,1-0.6c0.5-0.9,1.1-2.1,1.8-2.9c0.3-0.2,0.6-0.4,1-0.6c0.7-1.2,1.8-2.3,2.7-3.5
	c0.5-0.6,0.8-1.4,1.6-1.8l-0.1-0.1c-0.9,0.3-0.9,1-1.3,1.5c-0.6,0.7-1.3,1.2-2,1.9c-0.4,0.5-0.6,1.3-1.1,1.7c-0.3,0.3-0.8,0.1-1,0.2
	c-0.2,0.1-0.3,0.7-0.5,0.8c-1.6,1.6-2.9,3.2-4,5c-0.7,1.2-1.8,2-2.5,3.2c-1.9,3.3-3.9,6.5-5.7,9.8c-1.2,2.1-4,6.7-5.3,8.8
	c-0.5,0.9-0.4,2.2-1.7,2.7L2.7,58l0.1,0c-0.2-1.4,1.8-2.8,2.4-3.9c1.4-2.5,4.3-7.5,5.8-10.1C15.2,36.5,19.9,29,26,22.4
	c2.4-2.6,5.3-4.9,7.6-7.6l-0.1-0.1L32,15.1c-0.2,0.4-1.5,0.5-2.2,0.6c-1,0.2-1.7,0.5-2.2,0.8l-2.1,0.4c-1.4,0.8-3.2,1.4-4.5,2.2
	l-2.8,0.6c-0.5,0.2-1.3,0.6-1.7,0.8c-1,0.5-2.9,0.6-3.6,1.1c1,3.9,0.1,7,0.3,10.5c0,0.7,0.5,4,0.1,4.3c-0.8,1.2-6.3-3.6-7.6-5.1
	c0.1-1.7,0-3.6-0.1-5.5C5.3,24.1,6,22.7,5.7,21c-1.5-0.2-2.5-0.5-3.9-1.1C0.9,19,0.6,18.5,0,17.7c0.6-1.2,0.9-1.9,2.4-2.9
	c1.2-0.5,2.5-1,3.7-1.5C6,12.7,6,12.1,5.9,11.5c1-2.8,0.3-6.3,1.3-9.1C7.6,1.7,7.1,0.4,8.2-0.1 M5.1,15.1C4.8,15.6,4,15.7,3.6,16
	c-0.5,0.5-1,1.2-1.3,1.8c0.1,0.1,0.1,0.2,0.2,0.3c0.5,0,0.6,0.1,1.1,0.1c0.7,0.2,1.6,0,2.3-0.2c-0.2-1,0.2-1.8,0-2.8
	C5.6,15.1,5.3,15.1,5.1,15.1 M28.8,21c-0.1,0.3-0.4,0.5-0.4,0.8l0.1,0c0-0.3,0.3-0.5,0.6-0.7l-0.1-0.1L28.8,21z M31.2,23.1
	c-0.1,0.1-0.4,0.3-0.4,0.4l1.2-0.2l0-0.2L31.8,23L31.2,23.1z M30.7,24.7c-0.3-0.4-0.2-0.4-0.3-0.7l-0.5,0.1
	c-0.3,1.3-1.8,2.2-2.8,3.3c-1,1.1-1.7,2.5-2.7,3.7c0.5,0.4,0.4,0.2,0.6,0.5c-0.1,0.2-0.4,0.4-0.6,0.6l0.1,0.1l0.3-0.1
	c0.3-1,2.6-2.2,2.3-3.3c-0.3,0-0.4,0.1-0.6,0l0.3-0.1c0.3-0.7,1.6-1,1.8-1.7c-0.3,0-0.1,0-0.4-0.1c0.9-0.3,1.3-0.8,1.9-1.1L30,25.8
	c-0.3,0.1-0.6,0.2-0.9,0.3L29,26l0.1,0C29.2,25.4,30,25,30.7,24.7 M22.3,28.3l0.3-0.1l0.1,0.1C22.3,28.3,22.5,28.4,22.3,28.3
	 M22.1,28.5l0.3-0.1l0.1,0.1C22.2,28.5,22.4,28.5,22.1,28.5 M22,28.6l0.3-0.1l0,0.2c0,0.3-0.2,0.5-0.7,0.4l0.3-0.1
	C21.8,29,22,28.8,22,28.6 M21.4,29.4l0.3-0.1l0.1,0.1C21.5,29.4,21.6,29.4,21.4,29.4 M22.3,32.1c-0.1,0.3-0.3,0.5-0.6,0.7l0.1,0.1
	l0.3-0.1c0-0.4,0.4-0.5,0.7-0.7l-0.1-0.1L22.3,32.1z M18.1,33.6c0.3,0,0.3,0,0.5,0l-0.3,0.1C18.3,33.8,18.1,33.8,18.1,33.6 M18,34
	l0.3-0.1l0.1,0.1C18.1,34,18.2,34,18,34 M17.8,34.1l0.3-0.1l0.1,0.1C17.9,34.2,18.1,34.2,17.8,34.1 M17.5,34.5l0.3-0.1l0.1,0.1
	C17.6,34.5,17.8,34.6,17.5,34.5 M23.3,33.7c0.3,0.3,0,0.2,0.5,0.2c0-0.1,0-0.1,0.1-0.2l-0.1-0.1L23.3,33.7z M22.6,34.3
	c-0.1,0.4-0.6,0.8-1,1.1l0.1,0.1l0.8-0.2c0-0.4,0.2-0.8,0.6-1L23,34.2L22.6,34.3z M16.8,35.7l0.3-0.1l0.1,0.1
	C16.8,35.7,17,35.8,16.8,35.7 M18.9,36.6c-0.2,0.2-0.3,0.5-0.5,0.7l0.1,0.1l0.4-0.1c0-0.3,0.2-0.5,0.5-0.7l-0.1-0.1L18.9,36.6z
	 M20.4,37c-0.1,1.3-1.6,2-2.6,2.9c-0.7,0.6-0.5,1.6-1.3,2.4c0.2,0.2,0.2,0,0.2,0.2c0,0.2-0.1,0.2-0.3,0.4l0.1,0.1l0.4-0.1
	c0-0.5,0.5-0.2,0.8-0.6c0.1-0.2-0.3-0.7-0.2-0.9c0.2-0.3,0.8-0.2,1.1-0.5c0.5-0.6-0.3-1.4,0.9-1.5c-0.3-0.3-0.3-0.2-0.1-0.4
	c0.1-0.3,0.7-0.1,0.9-0.3c-0.1-0.1-0.1-0.3-0.2-0.4c0.4-0.5,1-0.8,1.3-1.3l-0.1-0.1L20.4,37z M18.2,37.9c0,0.2-0.2,0.4-0.4,0.5
	c0.1,0.1,0.1,0.2,0.2,0.2l0.1,0c0-0.3,0.2-0.5,0.2-0.8L18.2,37.9z M17.3,39c0.3,0.1,0.3,0.1,0.4-0.1L17.3,39z M16,43.6l0.1,0.1
	c0,0.1-0.3,0.1,0,0.2c0.3,0.1,0.4,0,0.8,0c-0.1-0.1-0.1-0.3-0.2-0.4L16,43.6z M15.3,44c0.2,0.3,0.1,0.3,0.2,0.6l0.3-0.1
	c0-0.2,0-0.3,0.2-0.5l-0.1-0.1L15.3,44z M32.1,46.3c0.5-0.1,1.4-0.4,1.9-0.3C33.5,46.2,32.6,46.4,32.1,46.3 M42,45.1
	c0.4,0,1.4-0.2,1.9-0.1l-0.1,0c-0.1,0.2-0.3,0.2-0.7,0.3c-0.3-0.1-0.9,0.1-1.2,0C42,45.1,41.9,45.2,42,45.1 M51.1,43.6l1.5-0.3
	c0.1,0.1,0.1,0.2,0.2,0.3l-0.3,0.1c-0.2,0.5-1.2,0.4-2.1,0.6L50.4,44l0.1,0C50.6,43.9,51.1,43.7,51.1,43.6"/>
<path class="st1" d="M54.1,38.9h-1.3c0,2.7-1.1,5.1-2.9,6.9c-1.8,1.8-4.2,2.9-6.9,2.9c-2.7,0-5.1-1.1-6.9-2.9
	c-1.8-1.8-2.9-4.2-2.9-6.9s1.1-5.1,2.9-6.9c1.8-1.8,4.2-2.9,6.9-2.9c2.7,0,5.1,1.1,6.9,2.9c1.8,1.8,2.9,4.2,2.9,6.9H54.1h1.3
	c0-6.8-5.5-12.3-12.3-12.3c-6.8,0-12.3,5.5-12.3,12.3s5.5,12.3,12.3,12.3c6.8,0,12.3-5.5,12.3-12.3H54.1z"/>
<path class="st1" d="M79.9,38.9h-1.3c0,2.7-1.1,5.1-2.9,6.9c-1.8,1.8-4.2,2.9-6.9,2.9c-2.7,0-5.1-1.1-6.9-2.9
	c-1.8-1.8-2.9-4.2-2.9-6.9s1.1-5.1,2.9-6.9c1.8-1.8,4.2-2.9,6.9-2.9c2.7,0,5.1,1.1,6.9,2.9c1.8,1.8,2.9,4.2,2.9,6.9H79.9h1.3
	c0-6.8-5.5-12.3-12.3-12.3c-6.8,0-12.3,5.5-12.3,12.3c0,6.8,5.5,12.3,12.3,12.3c6.8,0,12.3-5.5,12.3-12.3H79.9z"/>
<path class="st1" d="M103.2,49.9v-22c0-0.6-0.4-1-0.9-1.2c-0.5-0.2-1.1,0-1.4,0.5l-7.3,10.4l-7.3-10.4c-0.3-0.5-0.9-0.7-1.4-0.5
	c-0.5,0.2-0.9,0.7-0.9,1.2v22c0,0.7,0.6,1.3,1.3,1.3c0.7,0,1.3-0.6,1.3-1.3V32l6,8.6c0.2,0.3,0.6,0.5,1,0.5c0.4,0,0.8-0.2,1-0.5
	l6-8.6v18c0,0.7,0.6,1.3,1.3,1.3C102.7,51.2,103.2,50.6,103.2,49.9"/>
<path class="st1" d="M151.5,27.9v22c0,0.7,0.6,1.3,1.3,1.3c0.7,0,1.3-0.6,1.3-1.3v-22c0-0.7-0.6-1.3-1.3-1.3
	C152.1,26.6,151.5,27.2,151.5,27.9"/>
<path class="st1" d="M143,29.2h19.5c0.7,0,1.3-0.6,1.3-1.3c0-0.7-0.6-1.3-1.3-1.3H143c-0.7,0-1.3,0.6-1.3,1.3
	C141.7,28.6,142.3,29.2,143,29.2"/>
<path class="st1" d="M128.7,50.4l7.8-19.1l7.8,19.1c0.3,0.7,1,1,1.7,0.7c0.7-0.3,1-1,0.7-1.7l-9-22c-0.2-0.5-0.7-0.8-1.2-0.8
	c-0.5,0-1,0.3-1.2,0.8l-9,22c-0.3,0.7,0,1.4,0.7,1.7C127.7,51.4,128.5,51.1,128.7,50.4"/>
<path class="st1" d="M161.2,50.4l7.8-19.1l7.8,19.1c0.3,0.7,1,1,1.7,0.7c0.7-0.3,1-1,0.7-1.7l-9-22c-0.2-0.5-0.7-0.8-1.2-0.8
	c-0.5,0-1,0.3-1.2,0.8l-9,22c-0.3,0.7,0,1.4,0.7,1.7C160.2,51.4,160.9,51.1,161.2,50.4"/>
<path class="st1" d="M108.5,49.9h1.3V29.2l4.2,0h0c2.7,0,5.1,1.1,6.9,2.9c1.8,1.8,2.9,4.2,2.9,6.9c0,2.7-1.1,5.1-2.9,6.9
	c-1.8,1.8-4.2,2.9-6.9,2.9h0l-5.4,0.1L108.5,49.9h1.3H108.5l0,1.3l5.4-0.1h0c6.8,0,12.3-5.5,12.3-12.3c0-6.8-5.5-12.3-12.3-12.3h0
	l-5.4,0.1c-0.7,0-1.3,0.6-1.3,1.3v22c0,0.3,0.1,0.7,0.4,0.9c0.2,0.2,0.6,0.4,0.9,0.4L108.5,49.9z"/>
<path class="st1" d="M131.8,43h6c0.7,0,1.3-0.6,1.3-1.3c0-0.7-0.6-1.3-1.3-1.3h-6c-0.7,0-1.3,0.6-1.3,1.3
	C130.5,42.5,131.1,43,131.8,43"/>
<path class="st1" d="M164.3,43h6c0.7,0,1.3-0.6,1.3-1.3c0-0.7-0.6-1.3-1.3-1.3h-6c-0.7,0-1.3,0.6-1.3,1.3
	C163,42.5,163.6,43,164.3,43"/>
<path class="st1" d="M177.4,26.8h0.2c0.3,0,0.5-0.1,0.5-0.3c0-0.2-0.1-0.3-0.5-0.3c-0.1,0-0.2,0-0.3,0V26.8z M177.4,28h-0.5v-2.2
	c0.2,0,0.5-0.1,0.8-0.1c0.4,0,0.6,0.1,0.7,0.2c0.1,0.1,0.2,0.3,0.2,0.5c0,0.3-0.2,0.4-0.5,0.5v0c0.2,0.1,0.3,0.2,0.4,0.5
	c0.1,0.3,0.1,0.5,0.2,0.5h-0.5c-0.1-0.1-0.1-0.3-0.2-0.5c0-0.2-0.2-0.3-0.5-0.3h-0.2V28z M177.7,25.1c-0.9,0-1.7,0.8-1.7,1.7
	c0,1,0.7,1.7,1.7,1.7c0.9,0,1.7-0.8,1.7-1.7C179.4,25.9,178.7,25.1,177.7,25.1L177.7,25.1z M177.8,24.7c1.2,0,2.2,1,2.2,2.2
	c0,1.2-1,2.2-2.2,2.2c-1.3,0-2.3-1-2.3-2.2C175.5,25.6,176.5,24.7,177.8,24.7L177.8,24.7z"/>
<path class="st0" d="M32,42.7c-0.7,0.1-1.4,0.3-2.1,0.4c0.1,0.7,0.4,1.4,0.9,2c0.9-0.3,1.9-0.3,3-0.3c0.7,0,1.7-0.4,2.7-0.7
	c-0.2-0.7-0.7-1.4-0.9-2.1C34.6,42.4,33,42.5,32,42.7"/>
</svg>
