<svg width="1200" height="1200" viewBox="0 0 1200 1200" version="1.1" xmlns="http://www.w3.org/2000/svg" xmlns:xlink="http://www.w3.org/1999/xlink">
<title>monogram</title>
<desc>Created using Figma</desc>
<g id="Canvas" transform="translate(196 260)">
<clipPath id="clip-0" clip-rule="evenodd">
<path d="M -196 -260L 1004 -260L 1004 940L -196 940L -196 -260Z" fill="#FFFFFF"/>
</clipPath>
<g id="monogram" clip-path="url(#clip-0)">
<g id="Vector">
<use xlink:href="#path0_fill" transform="translate(-146 -260)" fill="#68AD45"/>
</g>
</g>
</g>
<defs>
<path id="path0_fill" d="M 1065.27 813.273L 1054.36 813.273C 1065.27 824.182 1082.18 830.182 1082.18 835.636C 1082.18 852.545 1048.36 847.091 1032 847.091L 1026 841.091L 1032 841.091C 1032 835.636 1048.36 835.636 1048.36 830.182C 1003.64 818.727 936.546 830.182 891.273 824.182C 852.546 824.182 818.727 847.091 784.909 841.091C 790.364 841.091 790.364 841.091 790.364 835.636C 774 835.636 734.727 835.636 728.727 847.091L 711.818 847.091L 711.818 841.091C 689.455 847.091 661.636 858 644.727 858C 616.909 858 594.545 858 571.636 869.455C 560.727 874.909 538.364 874.909 526.909 880.364C 504.546 897.273 453.818 886.364 448.364 908.727L 516 891.818C 510 897.273 493.091 897.273 487.636 908.727L 543.818 891.818C 538.364 902.727 521.455 897.273 510 902.727C 476.727 919.636 420.545 931.091 386.727 953.455C 381.273 958.909 375.273 970.364 369.818 970.364C 358.909 975.818 336.545 975.818 325.091 987.273C 319.636 992.727 313.636 1003.64 302.727 1009.64L 252 1042.91C 224.182 1071.27 235.091 1082.18 207.273 1105.09C 195.818 1116 173.455 1116 162.545 1132.91C 162.545 1132.91 128.727 1160.73 94.9091 1200L 78.5455 1183.64C 100.909 1138.36 111.818 1076.73 117.273 1093.64C 134.182 1127.45 123.273 1076.73 128.727 1054.36C 128.727 1042.91 140.182 1037.45 145.636 1032C 162.545 1015.09 168 975.818 184.909 953.455C 212.727 908.727 229.636 858 258 818.727C 274.364 784.909 297.273 757.091 313.636 729.273C 319.636 717.818 336.545 706.364 336.545 690C 330.545 690 336.545 695.455 325.091 690L 330.545 690C 330.545 684 336.545 678.545 342 673.091C 342 674.727 340.909 675.818 339.818 676.909C 345.273 672 354.545 669.818 358.909 661.636C 364.364 650.727 369.818 633.818 375.273 622.364C 381.273 616.909 386.727 616.909 392.182 611.455C 403.636 594.545 414.545 572.182 426 555.273C 431.455 549.818 437.455 549.818 442.909 543.818C 453.273 523.636 472.364 502.909 488.727 482.727C 478.909 491.455 468 496.364 459.818 504.545C 448.364 516 448.364 526.909 437.455 538.364C 431.455 543.818 420.545 538.364 420.545 543.818C 414.545 549.818 414.545 555.273 409.091 560.727C 381.273 589.091 352.909 622.364 330.545 656.182C 319.636 678.545 297.273 695.455 285.818 717.818C 246.545 779.455 212.727 841.091 179.455 902.727C 156.545 942 100.909 1032 78.5455 1071.27C 67.0909 1088.18 72.5455 1110.55 44.7273 1121.45C 44.7273 1093.64 78.5455 1071.27 89.4545 1048.91C 117.273 998.182 173.455 908.727 201.818 858C 280.364 717.818 369.818 577.636 487.636 448.364C 532.364 398.182 588.546 353.455 633.273 302.727L 605.455 308.182C 600 314.182 577.636 314.182 560.727 319.636C 543.818 325.091 526.909 331.091 516 336.545L 476.727 342C 448.364 358.909 414.545 370.364 392.182 381.273L 336.545 392.727C 336.545 386.727 319.636 392.727 308.182 392.727C 291.273 403.636 252 403.636 241.091 415.091C 258 487.636 241.091 549.818 246.545 616.909C 246.545 628.364 258 690 246.545 695.455C 229.636 717.818 123.273 628.364 100.909 600C 106.364 566.182 100.909 532.909 100.909 493.636C 100.909 459.818 111.818 437.455 106.364 403.636C 78.5455 403.636 61.6364 392.727 33.2727 381.273C 16.3636 370.364 10.9091 358.909 0 342C 10.9091 319.636 16.3636 302.727 44.7273 285.818L 111.818 258L 111.818 224.182C 128.727 174 117.273 106.364 140.182 50.1818C 145.636 33.8182 134.182 10.9091 156.545 0C 168 22.3636 179.455 78.5455 179.455 95.4545C 179.455 100.909 173.455 106.364 173.455 117.818C 173.455 128.727 184.909 134.727 184.909 145.636C 184.909 162.545 179.455 174 179.455 190.364C 184.909 218.727 190.364 235.636 201.818 263.455C 207.273 285.818 207.273 308.182 207.273 325.091C 241.091 325.091 291.273 314.182 313.636 297.273L 347.455 291.818C 375.273 280.364 414.545 268.909 437.455 258L 465.273 252.545C 499.091 235.636 555.273 229.636 588.545 207.273L 622.364 201.818C 650.182 184.909 700.909 179.455 728.727 162.545C 745.636 162.545 824.182 145.636 846.545 134.727C 874.909 123.273 908.182 112.364 942 106.364C 969.818 123.273 969.818 112.364 998.182 140.182C 998.182 151.636 1020.55 162.545 1026 174C 1048.36 218.727 1032 218.727 975.818 229.636C 969.818 235.636 936.545 252.545 919.636 252.545L 880.364 252.545C 846.546 274.909 807.273 291.818 779.455 319.636C 633.273 442.909 510 566.182 426 712.364C 403.636 745.636 375.273 774 352.909 801.818C 347.455 813.273 347.455 830.182 342 847.091C 336.545 863.455 313.636 874.909 313.636 897.273C 319.636 891.818 358.909 869.455 369.818 869.455C 375.273 869.455 381.273 874.909 381.273 874.909C 448.364 858 526.909 841.091 600 824.182C 622.364 818.727 656.182 818.727 672.545 813.273C 695.455 807.818 790.364 796.364 796.364 779.455C 784.909 779.455 774 779.455 762.546 774C 768 774 779.455 768.545 779.455 768.545C 757.091 774 723.273 762.545 700.909 762.545C 656.182 757.091 610.909 762.545 566.182 762.545C 538.364 762.545 510 768.545 482.182 762.545C 538.364 745.636 605.455 745.636 667.091 745.636C 689.455 745.636 711.818 740.182 740.182 740.182L 841.091 740.182C 885.818 740.182 947.455 734.727 986.727 745.636C 1009.09 751.636 1020.55 768.545 1042.91 784.909L 1054.36 784.909L 1059.82 790.909C 1059.82 796.364 1059.82 801.818 1065.27 813.273ZM 111.818 347.455C 106.364 331.091 111.818 314.182 111.818 291.818L 94.9091 291.818C 89.4546 302.727 72.5455 302.727 67.0909 314.182C 55.6364 319.636 50.1818 336.545 39.2727 347.455L 44.7273 353.455L 67.0909 353.455C 78.5455 358.909 94.9091 353.455 111.818 347.455ZM 555.273 403.636L 549.273 403.636C 549.273 409.636 543.818 415.091 543.818 420.545C 543.818 415.091 549.273 409.636 555.273 403.636ZM 521.455 442.909C 512.727 447.273 507.273 458.727 500.182 468.545C 504.545 458.182 505.636 448.364 521.455 442.909ZM 588.545 448.364L 605.455 442.909L 594.545 442.909L 588.545 448.364ZM 470.727 605.455C 473.455 608.182 474.545 608.182 475.636 608.727C 474 610.909 472.909 612.545 472.364 614.727C 468 614.727 465.273 616.909 465.273 616.909L 470.727 616.909L 472.364 614.727C 474.545 614.727 477.818 614.727 482.182 616.909C 478.909 610.364 477.273 609.273 475.636 608.727C 488.727 591.818 520.364 569.455 516 555.273L 510 555.273C 516 538.364 538.364 538.364 543.818 521.455L 538.364 521.455C 555.273 516 560.727 504.545 571.636 499.091C 566.182 499.091 560.727 504.545 555.273 504.545C 560.727 493.636 571.636 487.636 588.545 482.182C 583.091 476.727 583.091 476.727 583.091 471.273L 571.636 471.273C 566.182 499.091 538.364 516 521.455 532.909C 499.091 555.273 487.636 577.636 470.727 605.455ZM 431.455 616.909L 420.545 616.909C 420.545 622.364 414.545 628.364 409.091 628.364L 414.545 628.364C 420.545 622.364 426 622.364 431.455 616.909ZM 453.818 650.727C 442.909 650.727 448.364 656.182 442.909 650.727L 453.818 650.727ZM 437.455 661.636L 431.455 661.636C 426 667.636 414.545 673.091 409.091 684L 426 678.545C 426 673.091 431.455 667.636 437.455 661.636ZM 369.818 700.909L 358.909 700.909C 352.909 706.364 352.909 712.364 347.455 712.364L 352.909 712.364C 358.909 712.364 364.364 706.364 369.818 700.909ZM 409.091 717.818L 386.727 723.273C 386.727 733.636 380.182 742.909 371.455 751.636L 375.273 751.636C 375.273 745.636 386.727 751.636 392.182 745.636C 392.182 745.636 392.182 740.182 386.727 740.182C 392.182 729.273 403.636 723.273 409.091 717.818ZM 342 734.727C 336.545 740.182 336.545 740.182 342 740.182C 342 737.455 343.636 734.182 344.727 731.455C 346.909 728.727 347.455 727.091 347.455 723.273C 347.455 726 346.364 728.727 344.727 731.455C 344.182 732 343.636 733.091 342 734.727ZM 315.273 822C 314.182 819.818 313.636 820.909 313.636 824.182C 315.818 826.364 316.909 826.909 318 826.909C 318.545 828 318.545 828.545 319.636 830.182C 319.636 826.364 319.091 827.455 318 826.909C 317.455 826.364 316.909 825.273 316.364 824.182L 325.091 824.182C 325.091 813.273 336.545 818.727 342 813.273C 342 807.818 336.545 801.818 336.545 796.364C 342 790.909 352.909 790.909 358.909 784.909C 369.818 774 352.909 757.091 375.273 757.091C 372.545 754.364 370.909 752.727 371.455 752.182C 361.091 762 348 770.727 336.545 779.455C 325.636 790.364 324.545 810.545 315.273 822ZM 302.727 835.636C 308.182 841.091 308.182 841.091 319.636 835.636L 313.636 830.182L 302.727 835.636ZM 969.818 841.091L 998.182 835.636C 992.727 847.091 975.818 841.091 958.909 847.091L 969.818 841.091ZM 728.727 847.091L 745.636 847.091C 740.182 841.091 740.182 847.091 728.727 847.091ZM 297.273 858L 302.727 858C 297.273 847.091 297.273 847.091 302.727 847.091L 291.273 847.091C 297.273 852.545 291.273 852.545 297.273 858ZM 829.636 863.455C 829.636 869.455 824.182 869.455 818.727 869.455L 796.364 869.455L 796.364 863.455C 801.818 863.455 824.182 858 829.636 863.455ZM 610.909 886.364C 616.909 891.818 633.273 886.364 644.727 880.364C 639.273 880.364 622.364 886.364 610.909 886.364ZM 420.545 549.818L 426 549.818C 420.545 560.727 414.545 560.727 414.545 560.727C 414.545 555.273 420.545 555.273 420.545 549.818Z"/>
</defs>
</svg>
